<svg t="1741761292415" class="icon" viewBox="0 0 1024 1024" version="1.1" xmlns="http://www.w3.org/2000/svg" p-id="2603" width="48" height="48"><path d="M1000.1408 205.78304c-10.48576-5.24288-15.01696 4.75136-21.14048 9.8304-2.08896 1.6384-3.8656 3.76832-5.65248 5.7344-15.31904 16.71168-33.21344 27.68896-56.6272 26.37824-34.19648-1.96608-63.40096 9.0112-89.20576 35.71712-5.48864-32.93184-23.71584-52.59264-51.47136-65.20832-14.53568-6.5536-29.19936-13.1072-39.38304-27.36128-7.08096-10.15808-9.00608-21.46304-12.5696-32.60416-2.2528-6.71744-4.5056-13.60384-12.0832-14.7456-8.25344-1.31072-11.4688 5.7344-14.70464 11.63264-12.9024 24.08448-17.92 50.62656-17.408 77.49632 1.1008 60.45696 26.13248 108.62592 75.81696 142.8736 5.65248 3.93216 7.10656 7.86432 5.3248 13.59872-3.3792 11.79136-7.43424 23.26016-10.97728 35.05664-2.2528 7.53664-5.632 9.17504-13.56288 5.89824-27.25376-11.63264-50.80576-28.83584-71.6288-49.6384-35.328-34.90304-67.28704-73.40544-107.1104-103.552a473.9328 473.9328 0 0 0-28.41088-19.82464c-40.6528-40.30464 5.3248-73.40032 15.9744-77.33248 11.11552-4.096 3.87072-18.18624-32.11264-18.0224-35.98336 0.16384-68.89472 12.45184-110.83776 28.83584-6.144 2.4576-12.5952 4.25984-19.18976 5.7344-38.0928-7.3728-77.6192-9.0112-118.92736-4.25984-77.76256 8.84736-139.8784 46.36672-185.5488 110.42816C23.8592 379.45344 10.93632 466.944 26.76736 558.20288c16.5888 96.17408 64.69632 175.80032 138.58816 238.05952 76.63616 64.55296 164.88448 96.17408 265.56416 90.112 61.15328-3.60448 129.2288-11.96032 206.0288-78.31552 19.37408 9.8304 39.71072 13.76768 73.4208 16.71168 25.98912 2.4576 50.9952-1.31072 70.3488-5.40672 30.32576-6.5536 28.22144-35.2256 17.26464-40.46848-88.90368-42.27072-69.39136-25.06752-87.12704-38.9888 45.184-54.56384 113.25952-111.25248 139.88352-294.912 2.10432-14.58688 0.32768-23.76192 0-35.5584-0.16384-7.20896 1.4336-9.99424 9.5232-10.81344 22.26176-2.62144 43.88864-8.84736 63.73376-19.98848 57.58464-32.11264 80.83456-84.86912 86.3232-148.11136 0.8192-9.66656-0.16384-19.6608-10.18368-24.73984zM498.19136 774.9632c-86.13888-69.13536-127.93856-91.91424-145.2032-90.9312-16.13824 0.98304-13.23008 19.82464-9.68704 32.11264 3.70688 12.12416 8.56064 20.48 15.33952 31.1296 4.66944 7.04512 7.90528 17.53088-4.68992 25.3952-27.7504 17.53088-75.9808-5.89824-78.2336-7.04512-56.15616-33.75104-103.1168-78.31552-136.192-139.264-31.9488-58.6496-50.4832-121.56928-53.5552-188.74368-0.8192-16.22016 3.87072-21.94944 19.6608-24.90368a189.1584 189.1584 0 0 1 63.09888-1.6384c87.94112 13.1072 162.816 53.248 225.56672 116.81792 35.81952 36.20864 62.91456 79.4624 90.84928 121.73824 29.67552 44.89216 61.62432 87.64928 102.27712 122.71616 14.35648 12.288 25.8048 21.62176 36.77696 28.50816-33.07008 3.76832-88.2688 4.58752-126.00832-25.89184z m41.30304-271.1552c0-7.20896 5.65248-12.94336 12.76416-12.94336 1.60768 0.03072 3.05664 0.30208 4.33664 0.8192a12.84096 12.84096 0 0 1 8.23808 12.12416 12.9024 12.9024 0 0 1-2.08896 7.168 12.80512 12.80512 0 0 1-10.6496 5.77536 12.7488 12.7488 0 0 1-4.89984-0.9984 12.7744 12.7744 0 0 1-5.6832-4.7872 12.73344 12.73344 0 0 1-2.01728-7.15776z m128.27136 67.1744c-8.21248 3.44064-16.45056 6.38976-24.3712 6.71744-12.25216 0.65536-25.64096-4.42368-32.896-10.6496-11.29984-9.66656-19.36896-15.07328-22.74816-31.9488-1.4592-7.20896-0.65536-18.35008 0.63488-24.73472 2.90816-13.76768-0.32768-22.61504-9.8304-30.6432-7.74144-6.5536-17.59232-8.35584-28.40576-8.35584-4.03456 0-7.74656-1.79712-10.48576-3.2768a10.5984 10.5984 0 0 1-3.49696-2.66752 10.57792 10.57792 0 0 1-2.13504-3.84512 10.5728 10.5728 0 0 1-0.4096-4.38272c0.15872-1.46944 0.62464-2.8928 1.37216-4.1728 1.1264-2.29888 6.60992-7.86944 7.90528-8.84736 14.68416-8.51968 31.616-5.7344 47.26784 0.65536 14.52032 6.05696 25.472 17.2032 41.30816 32.93184 16.13824 19.00032 19.0464 24.24832 28.21632 38.5024 7.27552 11.136 13.89056 22.60992 18.39104 35.712 2.7648 8.192-0.79872 14.91456-10.3168 19.01056z" fill="#4D6BFE" p-id="2604"></path></svg>