<svg t="1744658375495" class="icon" viewBox="0 0 1024 1024" version="1.1" xmlns="http://www.w3.org/2000/svg" p-id="3008" width="64" height="64"><path d="M736 128a96 96 0 0 1 95.552 86.784L832 224l0.064 170.88a318.272 318.272 0 0 0-64-28.224L768 224a32 32 0 0 0-26.24-31.488L736 192H224a32 32 0 0 0-31.488 26.24L192 224v590.272l108.8-49.408 77.952 35.456c15.104 34.496 36.16 65.856 61.824 92.672L300.8 835.2 128 913.728V224a96 96 0 0 1 86.784-95.552L224 128h512z m-64 320a224 224 0 1 1 0 448 224 224 0 0 1 0-448z m0 96a32 32 0 0 0-31.488 26.24L640 576v96l0.512 5.76a32 32 0 0 0 25.728 25.728L672 704h96l5.76-0.512a32 32 0 0 0 25.728-25.728L800 672l-0.512-5.76a32 32 0 0 0-25.728-25.728L768 640h-64v-64l-0.512-5.76A32 32 0 0 0 672 544z m-256-96a32 32 0 0 1 0 64H288a32 32 0 0 1 0-64h128z m256-128a32 32 0 1 1 0 64H288a32 32 0 0 1 0-64h384z" p-id="3009"></path></svg>