<svg t="1739428548983" class="icon" viewBox="0 0 1024 1024" version="1.1" xmlns="http://www.w3.org/2000/svg" p-id="2573" width="16" height="16"><path d="M128 96a32 32 0 0 1 32 32v736H960a32 32 0 0 1 0 64H128a32 32 0 0 1-32-32V128a32 32 0 0 1 32-32z" p-id="2574"></path><path d="M224 576a32 32 0 0 1 32-32h128a32 32 0 0 1 32 32v320a32 32 0 0 1-32 32H256a32 32 0 0 1-32-32V576z m64 32v256h64v-256h-64zM480 256a32 32 0 0 1 32-32h128a32 32 0 0 1 32 32v640a32 32 0 0 1-32 32H512a32 32 0 0 1-32-32V256z m64 32v576h64v-576h-64zM736 448a32 32 0 0 1 32-32h128a32 32 0 0 1 32 32v448a32 32 0 0 1-32 32h-128a32 32 0 0 1-32-32V448z m64 32v384h64v-384h-64z" p-id="2575"></path></svg>